<svg height="480pt" viewBox="0 0 480 480.00373" width="480pt" xmlns="http://www.w3.org/2000/svg"><path d="m168 40.003906h304v400h-304zm0 0" fill="#e94f4f"/><path d="m392 408.003906h-224v-400h304v320zm0 0" fill="#60d1e0"/><g fill="#3fb7c7"><path d="m392 151.597656v16.40625h16v-16.40625c14.527344-2.074218 24.972656-15.027344 23.921875-29.664062-1.054687-14.632813-13.25-25.957032-27.921875-25.929688h-8c-6.625 0-12-5.371094-12-12s5.375-12 12-12h8c6.628906 0 12 5.371094 12 12v4h16v-4c-.039062-13.878906-10.257812-25.628906-24-27.59375v-16.40625h-16v16.40625c-14.523438 2.074219-24.96875 15.027344-23.917969 29.664063 1.054688 14.632812 13.246094 25.957031 27.917969 25.929687h8c6.628906 0 12 5.371094 12 12s-5.371094 12-12 12h-8c-6.625 0-12-5.371094-12-12v-4h-16v4c.042969 13.878906 10.261719 25.628906 24 27.59375zm0 0"/><path d="m200 80.003906h152v16h-152zm0 0"/><path d="m200 40.003906h152v16h-152zm0 0"/><path d="m256 120.003906h96v16h-96zm0 0"/><path d="m256 160.003906h96v16h-96zm0 0"/><path d="m256 200.003906h184v16h-184zm0 0"/><path d="m256 240.003906h184v16h-184zm0 0"/><path d="m256 280.003906h184v16h-184zm0 0"/><path d="m256 320.003906h112v16h-112zm0 0"/><path d="m256 360.003906h112v16h-112zm0 0"/></g><path d="m392 408.003906 80-80h-80zm0 0" fill="#9fe4ed"/><path d="m232 136.003906h-64v272h88v-248c0-13.253906-10.742188-24-24-24zm0 0" fill="#3fb7c7"/><path d="m32 120.003906h176c13.257812 0 24 10.746094 24 24v304c0 13.253906-10.742188 24-24 24h-176c-13.253906 0-24-10.746094-24-24v-304c0-13.253906 10.746094-24 24-24zm0 0" fill="#348fd9"/><path d="m40 184.003906h160v64h-160zm0 0" fill="#60d1e0"/><path d="m40 184.003906h160v16h-160zm0 0" fill="#5ac6d4"/><path d="m40 272.003906h32v32h-32zm0 0" fill="#ffb531"/><path d="m104 272.003906h32v32h-32zm0 0" fill="#ffb531"/><path d="m168 272.003906h32v32h-32zm0 0" fill="#ffb531"/><path d="m40 336.003906h32v32h-32zm0 0" fill="#ffb531"/><path d="m104 336.003906h32v32h-32zm0 0" fill="#ffb531"/><path d="m168 336.003906h32v96h-32zm0 0" fill="#ffb531"/><path d="m40 400.003906h32v32h-32zm0 0" fill="#ffb531"/><path d="m104 400.003906h32v32h-32zm0 0" fill="#ffb531"/><path d="m160 208.003906h16v16h-16zm0 0" fill="#3a9cc9"/><path d="m128 208.003906h16v16h-16zm0 0" fill="#3a9cc9"/><path d="m96 208.003906h16v16h-16zm0 0" fill="#3a9cc9"/><path d="m136 144.003906h-96v-136l16 8 16-8 16 8 16-8 16 8 16-8zm0 0" fill="#60d1e0"/><path d="m64 40.003906h48v16h-48zm0 0" fill="#3fb7c7"/><path d="m64 72.003906h48v16h-48zm0 0" fill="#3fb7c7"/><path d="m64 104.003906h48v16h-48zm0 0" fill="#3fb7c7"/><path d="m232 408.003906h24v32h-24zm0 0" fill="#cf3a3a"/><path d="m472 .00390625h-304c-4.417969 0-8 3.58203175-8 7.99999975v88h16v-80h288v304h-72c-4.417969 0-8 3.582032-8 8v72h-128v16h136c2.121094-.003906 4.15625-.847656 5.65625-2.34375l66.34375-66.34375v84.6875h-208v16h216c4.421875 0 8-3.582031 8-8v-432c0-4.417968-3.578125-7.99999975-8-7.99999975zm-72 388.68749975v-52.6875h52.691406zm0 0"/><path d="m368 120.003906v4c.042969 13.878906 10.261719 25.628906 24 27.59375v16.40625h16v-16.40625c14.527344-2.074218 24.972656-15.027344 23.921875-29.664062-1.054687-14.632813-13.25-25.957032-27.921875-25.929688h-8c-6.625 0-12-5.371094-12-12s5.375-12 12-12h8c6.628906 0 12 5.371094 12 12v4h16v-4c-.039062-13.878906-10.257812-25.628906-24-27.59375v-16.40625h-16v16.40625c-14.523438 2.074219-24.96875 15.027344-23.917969 29.664063 1.054688 14.632812 13.246094 25.957031 27.917969 25.929687h8c6.628906 0 12 5.371094 12 12s-5.371094 12-12 12h-8c-6.625 0-12-5.371094-12-12v-4zm0 0"/><path d="m200 80.003906h152v16h-152zm0 0"/><path d="m200 40.003906h152v16h-152zm0 0"/><path d="m256 120.003906h96v16h-96zm0 0"/><path d="m256 160.003906h96v16h-96zm0 0"/><path d="m256 200.003906h184v16h-184zm0 0"/><path d="m256 240.003906h184v16h-184zm0 0"/><path d="m256 280.003906h184v16h-184zm0 0"/><path d="m256 320.003906h112v16h-112zm0 0"/><path d="m256 360.003906h112v16h-112zm0 0"/><path d="m32 480.003906h176c17.675781 0 32-14.328125 32-32v-304c0-17.671875-14.324219-32-32-32h-64v-104c.003906-2.773437-1.429688-5.347656-3.789062-6.808594-2.359376-1.457031-5.304688-1.589843-7.785157-.351562l-12.425781 6.214844-12.421875-6.214844c-2.25-1.125-4.902344-1.125-7.152344 0l-12.425781 6.214844-12.421875-6.214844c-2.25-1.125-4.902344-1.125-7.152344 0l-12.425781 6.214844-12.421875-6.214844c-2.480469-1.238281-5.425781-1.105469-7.785156.351562-2.359375 1.460938-3.792969 4.035157-3.792969 6.808594v104c-17.671875 0-32 14.328125-32 32v304c0 17.671875 14.328125 32 32 32zm16-459.054687 4.425781 2.214843c2.25 1.125 4.902344 1.125 7.152344 0l12.421875-6.214843 12.425781 6.214843c2.25 1.125 4.902344 1.125 7.152344 0l12.421875-6.214843 12.425781 6.214843c2.25 1.125 4.902344 1.125 7.152344 0l4.421875-2.214843v115.054687h-80zm-32 123.054687c0-8.835937 7.164062-16 16-16v16c0 4.417969 3.582031 8 8 8h96c4.421875 0 8-3.582031 8-8v-16h64c8.839844 0 16 7.164063 16 16v304c0 8.835938-7.160156 16-16 16h-176c-8.835938 0-16-7.164062-16-16zm0 0"/><path d="m40 256.003906h160c4.421875 0 8-3.582031 8-8v-64c0-4.417968-3.578125-8-8-8h-160c-4.417969 0-8 3.582032-8 8v64c0 4.417969 3.582031 8 8 8zm8-64h144v48h-144zm0 0"/><path d="m40 320.003906h32c4.421875 0 8-3.582031 8-8v-32c0-4.417968-3.578125-8-8-8h-32c-4.417969 0-8 3.582032-8 8v32c0 4.417969 3.582031 8 8 8zm8-32h16v16h-16zm0 0"/><path d="m136 272.003906h-32c-4.417969 0-8 3.582032-8 8v32c0 4.417969 3.582031 8 8 8h32c4.421875 0 8-3.582031 8-8v-32c0-4.417968-3.578125-8-8-8zm-8 32h-16v-16h16zm0 0"/><path d="m200 272.003906h-32c-4.417969 0-8 3.582032-8 8v32c0 4.417969 3.582031 8 8 8h32c4.421875 0 8-3.582031 8-8v-32c0-4.417968-3.578125-8-8-8zm-8 32h-16v-16h16zm0 0"/><path d="m40 384.003906h32c4.421875 0 8-3.582031 8-8v-32c0-4.417968-3.578125-8-8-8h-32c-4.417969 0-8 3.582032-8 8v32c0 4.417969 3.582031 8 8 8zm8-32h16v16h-16zm0 0"/><path d="m136 336.003906h-32c-4.417969 0-8 3.582032-8 8v32c0 4.417969 3.582031 8 8 8h32c4.421875 0 8-3.582031 8-8v-32c0-4.417968-3.578125-8-8-8zm-8 32h-16v-16h16zm0 0"/><path d="m200 336.003906h-32c-4.417969 0-8 3.582032-8 8v96c0 4.417969 3.582031 8 8 8h32c4.421875 0 8-3.582031 8-8v-96c0-4.417968-3.578125-8-8-8zm-8 96h-16v-80h16zm0 0"/><path d="m40 448.003906h32c4.421875 0 8-3.582031 8-8v-32c0-4.417968-3.578125-8-8-8h-32c-4.417969 0-8 3.582032-8 8v32c0 4.417969 3.582031 8 8 8zm8-32h16v16h-16zm0 0"/><path d="m136 400.003906h-32c-4.417969 0-8 3.582032-8 8v32c0 4.417969 3.582031 8 8 8h32c4.421875 0 8-3.582031 8-8v-32c0-4.417968-3.578125-8-8-8zm-8 32h-16v-16h16zm0 0"/><path d="m160 208.003906h16v16h-16zm0 0"/><path d="m128 208.003906h16v16h-16zm0 0"/><path d="m96 208.003906h16v16h-16zm0 0"/><path d="m64 40.003906h48v16h-48zm0 0"/><path d="m64 72.003906h48v16h-48zm0 0"/><path d="m64 104.003906h48v16h-48zm0 0"/></svg>