<?xml version="1.0"?>
<svg xmlns="http://www.w3.org/2000/svg" viewBox="0 0 64 64" width="512" height="512"><g id="Product"><polygon points="16 10 16 30 32 38.14 32 17 16 10" style="fill:#e5cbaa"/><polygon points="32 17 32 38.14 48 30.1 48 10 32 17" style="fill:#ffe7c9"/><path d="M15.783,46.368,12.67,37.31a2,2,0,0,0-2.35-1.44l2.2-8.22a1.978,1.978,0,0,0-.81-2.17,1.834,1.834,0,0,0-.6-.28,1.861,1.861,0,0,0-.52-.07,1.987,1.987,0,0,0-1.93,1.48L3.324,43a4.015,4.015,0,0,0-.119,2.023l1.543,5.992A8.026,8.026,0,0,1,5,53.013V55h9l.992-1.488A6,6,0,0,0,16,50.183V47.668A3.994,3.994,0,0,0,15.783,46.368Z" style="fill:#efebe5"/><path d="M60.676,43,55.34,26.61a1.987,1.987,0,0,0-1.93-1.48,1.861,1.861,0,0,0-.52.07,1.834,1.834,0,0,0-.6.28,1.978,1.978,0,0,0-.81,2.17l2.2,8.22a2,2,0,0,0-2.35,1.44l-3.113,9.058a3.994,3.994,0,0,0-.217,1.3v2.515a6,6,0,0,0,1.008,3.329L50,55h9V53.013a8.026,8.026,0,0,1,.252-1.994L60.8,45.027A4.015,4.015,0,0,0,60.676,43Z" style="fill:#efebe5"/><polygon points="17 55 14 55 5 55 3 55 3 61 17 61 17 55" style="fill:#006df0"/><polygon points="50 55 47 55 47 61 61 61 61 55 59 55 50 55" style="fill:#006df0"/><polygon points="32 17 48 10 32 3 16 10 32 17" style="fill:#ffe2bd"/><polygon points="22 19 26 21 26 14.375 22 12.625 22 19" style="fill:#ffaf46"/><polygon points="33.43 11.12 29.259 9.302 22 12.625 26 14.375 26 14.37 33.43 11.12" style="fill:#ffaf46"/><path d="M38.558,29.233l-4.007,2.014a1,1,0,0,0,.9,1.787l4.007-2.014a1,1,0,0,0-.9-1.787Z" style="fill:#f1f2f2"/><path d="M35,29.14a1,1,0,0,0,.448-.106l3.95-1.985a1,1,0,1,0-.9-1.787l-3.949,1.985A1,1,0,0,0,35,29.14Z" style="fill:#f1f2f2"/><path d="M55.19,38.34a1.861,1.861,0,0,0,.07-.52A1.976,1.976,0,0,0,54.4,36.2L52,45l1.348.449L54.77,39.92Z" style="fill:#e4dbd0"/><path d="M8.81,38.34a1.861,1.861,0,0,1-.07-.52A1.976,1.976,0,0,1,9.6,36.2L12,45l-1.348.449L9.23,39.92Z" style="fill:#e4dbd0"/></g></svg>
