<svg height="512pt" viewBox="0 -2 512 511" width="512pt" xmlns="http://www.w3.org/2000/svg"><g fill-rule="evenodd"><path d="m424.195312 7.996094h-336.417968c-6.125 0-11.171875 5.019531-11.171875 11.171875v200.585937l178.332031 66.546875 180.425781-66.546875v-200.585937c0-6.152344-5.015625-11.171875-11.167969-11.171875zm0 0" fill="#e6e6e6"/><path d="m113.144531 7.996094h-25.367187c-6.125 0-11.171875 5.019531-11.171875 11.171875v152.167969c.765625-.082032 1.53125-.113282 2.324219-.113282 12.21875 0 22.28125 9.613282 23.019531 21.660156v-173.714843c0-6.152344 5.046875-11.171875 11.195312-11.171875zm0 0" fill="#b3b3b3"/><path d="m456.765625 194.296875c0-12.132813-9.46875-22.136719-21.402344-23.015625-.539062-.027344-1.105469-.058594-1.671875-.058594-12.699218 0-23.074218 10.375-23.074218 23.074219v25.457031l26.335937 15.648438 19.8125-15.648438zm0 0" fill="#888b99"/><path d="m102.007812 194.296875c0-12.699219-10.375-23.074219-23.074218-23.074219-.796875 0-1.5625.027344-2.324219.113282-11.59375 1.160156-20.75 11.054687-20.75 22.960937v25.457031l23.667969 13.039063 22.480468-13.039063zm0 0" fill="#888b99"/><path d="m35.644531 450.105469 217.589844-52.324219 220.992187 52.324219v18.140625c0 5.757812-4.707031 10.433594-10.429687 10.433594h-417.71875c-5.726563 0-10.433594-4.675782-10.433594-10.433594zm0 0" fill="#888b99"/><path d="m102.007812 219.753906h-66.363281c-15.476562 0-28.148437 12.671875-28.148437 28.175782v174c0 15.503906 12.671875 28.175781 28.148437 28.175781h29.679688v-15.335938c0-8.449219 6.917969-15.335937 15.335937-15.335937h350.648438c8.449218 0 15.335937 6.886718 15.335937 15.335937v15.335938h29.679688c15.507812 0 28.179687-12.671875 28.179687-28.175781v-173.996094c0-15.507813-12.671875-28.179688-28.179687-28.179688h-65.707031c-91.558594 0-217.222657 0-308.609376 0zm0 0" fill="#616d80"/><path d="m431.3125 419.433594h-350.652344c-8.417968 0-15.335937 6.886718-15.335937 15.335937v15.335938h381.320312v-15.335938c0-8.445312-6.886719-15.335937-15.332031-15.335937zm0 0" fill="#2e3c51"/><path d="m435.363281 450.105469h-358.753906l-10.773437 37.449219c-1.785157 6.261718 4.847656 11.933593 10.773437 11.933593h358.753906c5.925781 0 13.296875-5.980469 10.773438-11.933593zm0 0" fill="#e6e6e6"/><path d="m448.433594 272.394531h-47.59375c-2.324219 0-4.226563 1.902344-4.226563 4.226563v19.359375c0 2.324219 1.898438 4.222656 4.226563 4.222656h47.59375c2.324218 0 4.222656-1.898437 4.222656-4.222656v-19.359375c0-2.324219-1.898438-4.226563-4.222656-4.226563zm0 0" fill="#55cf63"/><path d="m415.179688 272.394531h-14.339844c-2.324219 0-4.226563 1.902344-4.226563 4.226563v19.359375c0 2.324219 1.898438 4.222656 4.226563 4.222656h14.3125c-2.296875-.027344-4.195313-1.898437-4.195313-4.222656v-19.359375c0-2.324219 1.898438-4.226563 4.222657-4.226563zm0 0" fill="#32a352"/><path d="m448.433594 331.898438h-47.59375c-2.324219 0-4.226563 1.898437-4.226563 4.222656v19.359375c0 2.324219 1.898438 4.226562 4.226563 4.226562h47.59375c2.324218 0 4.222656-1.898437 4.222656-4.226562v-19.359375c0-2.324219-1.898438-4.222656-4.222656-4.222656zm0 0" fill="#edcf56"/><path d="m415.179688 331.898438h-14.339844c-2.324219 0-4.226563 1.898437-4.226563 4.222656v19.359375c0 2.324219 1.898438 4.226562 4.226563 4.226562h14.3125c-2.296875-.027343-4.195313-1.929687-4.195313-4.226562v-19.359375c0-2.324219 1.898438-4.222656 4.222657-4.222656zm0 0" fill="#db9c44"/><path d="m356.136719 219.753906h-200.300781v15.335938c0 8.417968 6.890624 15.335937 15.335937 15.335937h169.628906c8.445313 0 15.335938-6.917969 15.335938-15.335937zm0 0" fill="#bae0f2"/><path d="m253.234375 300.996094c-17.402344 0-31.492187 14.089844-31.492187 31.496094s14.089843 31.492187 31.492187 31.492187c17.40625 0 31.496094-14.085937 31.496094-31.492187s-14.089844-31.496094-31.496094-31.496094zm0 0" fill="#bae0f2"/><path d="m109.886719 450.105469h-33.277344l-10.773437 37.449219c-1.785157 6.261718 4.847656 11.933593 10.773437 11.933593h33.277344c-5.921875 0-12.585938-5.671875-10.800781-11.933593zm0 0" fill="#b3b3b3"/><path d="m35.644531 219.753906c-15.476562 0-28.148437 12.671875-28.148437 28.175782v174c0 15.503906 12.671875 28.175781 28.148437 28.175781h29.679688v-.765625c-12.386719-2.949219-21.683594-14.144532-21.683594-27.410156v-173.996094c0-15.507813 12.699219-28.179688 28.175781-28.179688zm0 0" fill="#3f4c63"/></g><path d="m448.433594 264.898438h-47.59375c-6.464844 0-11.722656 5.257812-11.722656 11.71875v19.363281c0 6.460937 5.257812 11.722656 11.722656 11.722656h47.59375c6.460937 0 11.71875-5.261719 11.71875-11.722656v-19.363281c0-6.460938-5.257813-11.71875-11.71875-11.71875zm-3.277344 27.808593h-41.042969v-12.8125h41.042969zm0 0"/><path d="m448.433594 324.398438h-47.59375c-6.464844 0-11.722656 5.257812-11.722656 11.722656v19.359375c0 6.464843 5.257812 11.722656 11.722656 11.722656h47.59375c6.460937 0 11.71875-5.257813 11.71875-11.722656v-19.359375c0-6.464844-5.257813-11.722656-11.71875-11.722656zm-3.277344 27.808593h-41.042969v-12.8125h41.042969zm0 0"/><path d="m476.324219 212.257812h-12.058594v-17.960937c0-13.664063-9.011719-25.261719-21.402344-29.164063v-51.398437c0-4.140625-3.359375-7.496094-7.5-7.496094s-7.496093 3.355469-7.496093 7.496094v50.554687c-14.082032 2.730469-24.746094 15.144532-24.746094 30.007813v17.960937h-132.109375c-4.144531 0-7.5 3.355469-7.5 7.496094s3.355469 7.5 7.5 7.5h77.625v7.835938c0 4.320312-3.515625 7.839844-7.835938 7.839844h-169.628906c-4.320313 0-7.835937-3.519532-7.835937-7.839844v-7.835938h73.769531c4.140625 0 7.5-3.359375 7.5-7.5s-3.359375-7.496094-7.5-7.496094h-127.601563v-17.960937c0-15.09375-10.996094-27.660156-25.398437-30.125v-145.003906c0-1.992188 1.679687-3.671875 3.667969-3.671875h336.421874c2.023438 0 3.667969 1.648437 3.667969 3.671875v59.953125c0 4.140625 3.359375 7.5 7.5 7.5s7.496094-3.359375 7.496094-7.5v-59.953125c0-10.292969-8.371094-18.667969-18.664063-18.667969h-336.417968c-10.292969 0-18.667969 8.375-18.667969 18.667969v146.183593c-12.050781 4.101563-20.75 15.523438-20.75 28.945313v17.960937h-12.714844c-19.652343 0-35.644531 16.003907-35.644531 35.675782v173.996094c0 17.097656 12.082031 31.417968 28.148438 34.875v11.445312c0 9.886719 8.042968 17.929688 17.929687 17.929688h12.398437c-1.054687 4.472656-.03125 9.207031 2.902344 13.09375 3.59375 4.757812 9.425782 7.710937 15.230469 7.710937h358.753906c6.214844 0 12.734375-3.535156 16.21875-8.796875 2.46875-3.726562 3.148438-8.019531 1.984375-12.007812h10.230469c9.886719 0 17.929687-8.042969 17.929687-17.929688v-11.054688c17.117188-2.609374 30.273438-17.429687 30.273438-35.265624v-173.996094c0-19.671875-16.003906-35.675782-35.675781-35.675782zm-58.207031-17.960937c0-8.585937 6.984374-15.574219 15.574218-15.574219s15.578125 6.988282 15.578125 15.574219v17.960937h-31.15625v-17.960937zm-354.761719 0c0-8.585937 6.988281-15.574219 15.578125-15.574219 8.585937 0 15.574218 6.988282 15.574218 15.574219v17.960937h-31.152343zm-20.210938 273.953125v-10.644531h23.503907l-3.90625 13.578125h-16.664063c-1.589844 0-2.933594-1.34375-2.933594-2.933594zm396.003907-25.640625h-3.617188c-.007812 0-.011719 0-.015625 0h-362.691406v-7.839844c0-4.320312 3.515625-7.835937 7.835937-7.835937h350.652344c4.320312 0 7.835938 3.515625 7.835938 7.835937zm-3.785157 49.378906h-358.753906c-1.648437 0-3.539063-1.644531-3.566406-2.363281l9.210937-32.019531h347.464844l9.179688 31.90625c.042968.160156.089843.3125.144531.46875-.570313.820312-2.378907 2.007812-3.679688 2.007812zm28.433594-20.804687h-14.566406l-3.90625-13.578125h21.40625v10.644531c0 1.589844-1.34375 2.933594-2.933594 2.933594zm33.207031-49.253906c0 11.402343-9.277344 20.679687-20.679687 20.679687h-22.179688v-7.839844c0-12.589843-10.242187-22.832031-22.832031-22.832031h-350.652344c-12.589844 0-22.832031 10.242188-22.832031 22.832031v7.839844h-22.183594c-11.386719 0-20.648437-9.277344-20.648437-20.679687v-173.996094c0-11.40625 9.261718-20.679688 20.648437-20.679688h112.695313v7.835938c0 12.59375 10.242187 22.835937 22.832031 22.835937h169.628906c12.589844 0 22.832031-10.242187 22.832031-22.835937v-7.835938h112.691407c11.402343 0 20.679687 9.273438 20.679687 20.679688zm0 0"/><path d="m253.234375 293.5c-21.5 0-38.992187 17.492188-38.992187 38.992188s17.492187 38.992187 38.992187 38.992187 38.992187-17.492187 38.992187-38.992187-17.492187-38.992188-38.992187-38.992188zm0 62.988281c-13.230469 0-23.992187-10.765625-23.992187-23.996093 0-13.230469 10.761718-23.996094 23.992187-23.996094 13.234375 0 23.996094 10.765625 23.996094 23.996094 0 13.230468-10.761719 23.996093-23.996094 23.996093zm0 0"/></svg>